# xmcd
#
# Track frame offsets: 
#        150
#        17175
#        33617
#        47750
#        61665
#        80205
#        99370
#        115032
#        131035
#        144355
#        161715
#        178307
#        192987
#
# Disc length: 2785 seconds
#
# Revision: 0
# Processed by: cddbd v1.4PL0 Copyright (c) Steve Scherf et al.
# Submitted via: ExactAudioCopy v0.90b4
#
DISCID=b50adf0d
DTITLE=Vinny - Até você chegar
DYEAR=2001
DGENRE=Pop/Funk
TTITLE0=Eu não acredito em você
TTITLE1=Amor Clichê
TTITLE2=Onde você vai
TTITLE3=O mundo não para
TTITLE4=Fixação
TTITLE5=Quanto tempo faz
TTITLE6=Deixe ser
TTITLE7=Você e só você
TTITLE8=Pensando bem
TTITLE9=Algo de novo
TTITLE10=Até você chegar
TTITLE11=Pra onde ir
TTITLE12=Fuck the fashion
EXTD=
EXTT0=
EXTT1=
EXTT2=
EXTT3=
EXTT4=
EXTT5=
EXTT6=
EXTT7=
EXTT8=
EXTT9=
EXTT10=
EXTT11=
EXTT12=
PLAYORDER=
